<svg width="240" height="40" viewBox="0 0 240 40" fill="none" xmlns="http://www.w3.org/2000/svg">
  <title>AMOREPACIFIC</title>
  <defs>
    <linearGradient id="apBlue" x1="0" y1="0" x2="1" y2="1">
      <stop offset="0" stop-color="#3AA7E6"/>
      <stop offset="1" stop-color="#0B2E6F"/>
    </linearGradient>
  </defs>

  <!-- Abstract mark (blue) -->
  <circle cx="18" cy="20" r="15" fill="url(#apBlue)"/>
  <path d="M18 9.8c4.7 0 8.6 3.8 8.6 8.5 0 4.4-3.4 8-7.8 8.5v2.9h-1.7v-2.9c-4.4-.5-7.8-4.1-7.8-8.5 0-4.7 3.9-8.5 8.7-8.5Zm0 3.1c-3 0-5.5 2.4-5.5 5.4 0 2.5 1.8 4.7 4.2 5.3v-6.2h2.6v6.2c2.4-.6 4.2-2.8 4.2-5.3 0-3-2.4-5.4-5.5-5.4Z" fill="white" opacity="0.92"/>

  <!-- Wordmark (clean, CI-like; not an official font embed) -->
  <text x="44" y="18.5" font-family="Arial, Helvetica, sans-serif" font-size="16" letter-spacing="1.2" fill="#0B2E6F">AMOREPACIFIC</text>
  <text x="44" y="32" font-family="Arial, Helvetica, sans-serif" font-size="10" letter-spacing="0.4" fill="#6B6B6B">Asian Beauty Creator</text>
</svg>

